<svg xmlns="http://www.w3.org/2000/svg" width="261.0563659667969" height="263.6737976074219" viewBox="-47.02157974243164 -48.9102783203125 261.0563659667969 263.6737976074219"><title>Neo4j Graph Visualization</title><desc>Created using Neo4j (http://www.neo4j.com/)</desc><g class="layer relationships"><g class="relationship" transform="translate(185.03480725531955 185.7635216908357) rotate(191.08885454433016)"><path class="outline" fill="#A5ABB6" stroke="none" d="M 24.018736134675446,-6.953439040707552 L 24.277555179777966,-5.987513214418485 A 102.70107248806796 102.70107248806796 0 0 1 26.321031181505646,-6.512624149134965 L 26.082109455410823,-7.4836629788425455 A 103.70107248806796 103.70107248806796 0 0 0 24.018736134675446,-6.953439040707552 Z M 72.37268140728749,-8.230729814563205 L 72.1652184351218,-7.252486943298507 A 102.70107248806796 102.70107248806796 0 0 1 74.2245749825914,-6.793590142492633 L 73.54203022260864,-3.8722663585515114 L 81.15475460511782,-5.68787299985637 L 75.13463466256843,-10.688688521080794 L 74.45208990258567,-7.767364737139673 A 103.70107248806796 103.70107248806796 0 0 0 72.37268140728749,-8.230729814563205"/><text text-anchor="middle" pointer-events="none" font-size="8px" fill="#000000" x="49.19324068106475" y="-6.9735303710432675" transform="rotate(180 49.19324068106475 -9.973530371043267)" font-family="sans-serif">twowheeler</text></g><g class="relationship" transform="translate(185.03480725531955 185.7635216908357) rotate(191.08885454433016)"><path class="outline" fill="#A5ABB6" stroke="none" d="M 24.018736134675446,6.953439040707552 L 24.277555179777966,5.987513214418485 A 102.70107248806796 102.70107248806796 0 0 0 39.60276475793565,8.868300927638103 L 39.49316722734008,9.862276974274707 A 103.70107248806796 103.70107248806796 0 0 1 24.018736134675446,6.953439040707552 Z M 58.89185259398368,10.175345356948071 L 58.81438662657275,9.178350360023273 A 102.70107248806796 102.70107248806796 0 0 0 74.2245749825914,6.793590142492633 L 73.54203022260864,3.8722663585515114 L 81.15475460511782,5.68787299985637 L 75.13463466256843,10.688688521080794 L 74.45208990258567,7.767364737139673 A 103.70107248806796 103.70107248806796 0 0 1 58.89185259398368,10.175345356948071"/><text text-anchor="middle" pointer-events="none" font-size="8px" fill="#000000" x="49.19324068106481" y="12.973530371043267" transform="rotate(180 49.19324068106481 9.973530371043267)" font-family="sans-serif">trek</text></g><g class="relationship" transform="translate(81.50534624386876 165.47276241729392) rotate(197.78801477925396)"><path class="outline" fill="#A5ABB6" stroke="none" d="M 24.018736134675446,-6.953439040707552 L 24.277555179777966,-5.987513214418485 A 100.74885564386861 100.74885564386861 0 0 1 25.843953831920377,-6.393774078790983 L 25.600682344575528,-7.363732316781167 A 101.74885564386861 101.74885564386861 0 0 0 24.018736134675446,-6.953439040707552 Z M 71.8801772182338,-8.117165768840039 L 71.66860825965126,-7.1398026961979895 A 100.74885564386861 100.74885564386861 0 0 1 73.2474012192448,-6.784745773871245 L 72.56568260476814,-3.8632290905925033 L 80.17789324930797,-5.680988453972162 L 74.15635937188034,-10.680101351576235 L 73.47464075740369,-7.758584668297493 A 101.74885564386861 101.74885564386861 0 0 0 71.8801772182338,-8.117165768840039"/><text text-anchor="middle" pointer-events="none" font-size="8px" fill="#000000" x="48.705157651732705" y="-6.907032355346047" transform="rotate(180 48.705157651732705 -9.907032355346047)" font-family="sans-serif">twowheeler</text></g><g class="relationship" transform="translate(81.50534624386876 165.47276241729392) rotate(197.78801477925396)"><path class="outline" fill="#A5ABB6" stroke="none" d="M 24.018736134675446,6.953439040707552 L 24.277555179777966,5.987513214418485 A 100.74885564386861 100.74885564386861 0 0 0 39.11642753116503,8.7918448234676 L 39.00489425180699,9.7856055228292 A 101.74885564386861 101.74885564386861 0 0 1 24.018736134675446,6.953439040707552 Z M 58.404233112075325,10.101428132497972 L 58.3251073541645,9.104563490515403 A 100.74885564386861 100.74885564386861 0 0 0 73.2474012192448,6.784745773871245 L 72.56568260476814,3.8632290905925033 L 80.17789324930797,5.680988453972162 L 74.15635937188034,10.680101351576235 L 73.47464075740369,7.758584668297493 A 101.74885564386861 101.74885564386861 0 0 1 58.404233112075325,10.101428132497972"/><text text-anchor="middle" pointer-events="none" font-size="8px" fill="#000000" x="48.70515765173274" y="12.907032355346047" transform="rotate(180 48.70515765173274 9.907032355346047)" font-family="sans-serif">trek</text></g><g class="relationship" transform="translate(81.50534624386876 165.47276241729392) rotate(256.7232085221943)"><path class="outline" fill="#A5ABB6" stroke="none" d="M 24.018736134675446,-6.953439040707552 L 24.277555179777966,-5.987513214418485 A 109.11960066126879 109.11960066126879 0 0 1 27.895336433494744,-6.890934997502441 L 27.669671663442653,-7.8651400126595945 A 110.11960066126879 110.11960066126879 0 0 0 24.018736134675446,-6.953439040707552 Z M 73.99210318600113,-8.591933944205678 L 73.79711231214975,-7.611128887573798 A 109.11960066126879 109.11960066126879 0 0 1 77.44145500898739,-6.821649042421757 L 76.7562893146557,-3.9009388597245787 L 84.37063971766942,-5.70971411943069 L 78.3550092680963,-10.715929286017992 L 77.66984357376461,-7.795219103320815 A 110.11960066126879 110.11960066126879 0 0 0 73.99210318600113,-8.591933944205678"/><text text-anchor="middle" pointer-events="none" font-size="8px" fill="#000000" x="50.80007802737694" y="-7.192183256720611" transform="rotate(180 50.80007802737694 -10.192183256720611)" font-family="sans-serif">twowheeler</text></g><g class="relationship" transform="translate(81.50534624386876 165.47276241729392) rotate(256.7232085221943)"><path class="outline" fill="#A5ABB6" stroke="none" d="M 24.018736134675446,6.953439040707552 L 24.277555179777966,5.987513214418485 A 109.11960066126879 109.11960066126879 0 0 0 41.20435904990907,9.117397111463802 L 41.100661575702645,10.112005996324172 A 110.11960066126879 110.11960066126879 0 0 1 24.018736134675446,6.953439040707552 Z M 60.49723551713048,10.416336139843295 L 60.424792015298564,9.418963622153768 A 109.11960066126879 109.11960066126879 0 0 0 77.44145500898739,6.821649042421757 L 76.7562893146557,3.9009388597245787 L 84.37063971766942,5.70971411943069 L 78.3550092680963,10.715929286017992 L 77.66984357376461,7.795219103320815 A 110.11960066126879 110.11960066126879 0 0 1 60.49723551713048,10.416336139843295"/><text text-anchor="middle" pointer-events="none" font-size="8px" fill="#000000" x="50.80007802737696" y="13.192183256720611" transform="rotate(180 50.80007802737696 10.192183256720611)" font-family="sans-serif">trek</text></g><g class="relationship" transform="translate(56.53951991348895 59.66847153509172) rotate(311.9083620972523)"><path class="outline" fill="#A5ABB6" stroke="none" d="M 24.018736134675446,6.953439040707552 L 24.277555179777966,5.987513214418485 A 105.5629321221158 105.5629321221158 0 0 0 27.021929782265083,6.683558589589893 L 26.7891082587103,7.656078069173532 A 106.5629321221158 106.5629321221158 0 0 1 24.018736134675446,6.953439040707552 Z M 73.09469449494016,8.39398236215662 L 72.8929785549127,7.4145382955867944 A 105.5629321221158 105.5629321221158 0 0 0 75.65813777030276,6.806290289739389 L 74.97440670627856,3.8852439306262165 L 82.58786778557086,5.697758866868425 L 76.56977918900171,10.701018768556951 L 75.8860481249775,7.779972409443779 A 106.5629321221158 106.5629321221158 0 0 1 73.09469449494016,8.39398236215662"/><text text-anchor="middle" pointer-events="none" font-size="8px" fill="#000000" x="49.909297457399006" y="13.071018587038651" font-family="sans-serif">twowheeler</text></g><g class="relationship" transform="translate(56.53951991348895 59.66847153509172) rotate(311.9083620972523)"><path class="outline" fill="#A5ABB6" stroke="none" d="M 24.018736134675446,-6.953439040707552 L 24.277555179777966,-5.987513214418485 A 105.5629321221158 105.5629321221158 0 0 1 40.31639446725586,-8.979779391547964 L 40.20951170286335,-9.97405102177575 A 106.5629321221158 106.5629321221158 0 0 0 24.018736134675446,-6.953439040707552 Z M 59.607247786121675,-10.283164325232647 L 59.532099747710916,-9.285991936764631 A 105.5629321221158 105.5629321221158 0 0 1 75.65813777030276,-6.806290289739389 L 74.97440670627856,-3.8852439306262165 L 82.58786778557086,-5.697758866868425 L 76.56977918900171,-10.701018768556951 L 75.8860481249775,-7.779972409443779 A 106.5629321221158 106.5629321221158 0 0 0 59.607247786121675,-10.283164325232647"/><text text-anchor="middle" pointer-events="none" font-size="8px" fill="#000000" x="49.90929745739901" y="-7.071018587038651" font-family="sans-serif">trek</text></g><g class="relationship" transform="translate(-18.02158013350069 133.5411259430459) rotate(315.265739735862)"><path class="outline" fill="#A5ABB6" stroke="none" d="M 21.40063509461097,12.933012701892217 L 21.90063509461097,12.06698729810778 A 57.35691196094895 57.35691196094895 0 0 0 26.509010904509594,14.456394000876834 L 26.08935650981408,15.364077970666287 A 58.35691196094895 58.35691196094895 0 0 1 21.40063509461097,12.933012701892217 Z M 71.68374102643436,16.80145617498954 L 71.32209320714139,15.869141391882117 A 57.35691196094895 57.35691196094895 0 0 0 76.07182218472288,13.774752068948402 L 74.73844856480098,11.087352807637131 L 82.56464939776949,11.11144683268251 L 77.84965367795208,17.357951084030095 L 76.51628005803018,14.670551822718824 A 58.35691196094895 58.35691196094895 0 0 1 71.68374102643436,16.80145617498954"/><text text-anchor="middle" pointer-events="none" font-size="8px" fill="#000000" x="48.75603828885727" y="23.222627380468573" font-family="sans-serif">twowheeler</text></g><g class="relationship" transform="translate(-18.02158013350069 133.5411259430459) rotate(315.265739735862)"><path class="outline" fill="#A5ABB6" stroke="none" d="M 25 0.5 L 37.97396224601504 0.5 L 37.97396224601504 -0.5 L 25 -0.5 Z M 59.98568099601504 0.5 L 72.95964324203008 0.5 L 72.95964324203008 3.5 L 79.95964324203008 0 L 72.95964324203008 -3.5 L 72.95964324203008 -0.5 L 59.98568099601504 -0.5 Z"/><text text-anchor="middle" pointer-events="none" font-size="8px" fill="#000000" x="48.97982162101504" y="3" font-family="sans-serif">road</text></g><g class="relationship" transform="translate(-18.02158013350069 133.5411259430459) rotate(315.265739735862)"><path class="outline" fill="#A5ABB6" stroke="none" d="M 21.40063509461097,-12.933012701892217 L 21.90063509461097,-12.06698729810778 A 57.35691196094895 57.35691196094895 0 0 1 39.261827761695756,-18.623750880119047 L 39.064514780113086,-19.60409142671444 A 58.35691196094895 58.35691196094895 0 0 0 21.40063509461097,-12.933012701892217 Z M 58.4672775312518,-20.21577000463178 L 58.33210611468601,-19.224947776306436 A 57.35691196094895 57.35691196094895 0 0 1 76.07182218472288,-13.774752068948402 L 74.73844856480098,-11.087352807637131 L 82.56464939776949,-11.11144683268251 L 77.84965367795208,-17.357951084030095 L 76.51628005803018,-14.670551822718824 A 58.35691196094895 58.35691196094895 0 0 0 58.4672775312518,-20.21577000463178"/><text text-anchor="middle" pointer-events="none" font-size="8px" fill="#000000" x="48.75603828885725" y="-17.222627380468573" font-family="sans-serif">trek</text></g></g><g class="layer nodes"><g class="node" transform="translate(185.03480725531955,185.7635216908357)"><circle class="outline" cx="0" cy="0" r="25" fill="#8DCC93" stroke="#5db665" stroke-width="2px"/><text text-anchor="middle" pointer-events="none" font-family="sans-serif" dy="1.5625" font-size="25" fill="#2A2C34"/><text text-anchor="middle" pointer-events="none" x="0" y="5" font-size="10px" fill="#2A2C34" font-family="sans-serif"> Rimbik</text></g><g class="node" transform="translate(127.96241713450438,-19.910280089850566)"><circle class="outline" cx="0" cy="0" r="25" fill="#F16667" stroke="#eb2728" stroke-width="2px"/><text text-anchor="middle" pointer-events="none" font-family="sans-serif" dy="1.5625" font-size="25" fill="#FFFFFF"/><text text-anchor="middle" pointer-events="none" x="0" y="5" font-size="10px" fill="#FFFFFF" font-family="sans-serif"> Sandak…</text></g><g class="node" transform="translate(81.50534624386876,165.47276241729392)"><circle class="outline" cx="0" cy="0" r="25" fill="#D9C8AE" stroke="#c0a378" stroke-width="2px"/><text text-anchor="middle" pointer-events="none" font-family="sans-serif" dy="1.5625" font-size="25" fill="#2A2C34"/><text text-anchor="middle" pointer-events="none" x="0" y="5" font-size="10px" fill="#2A2C34" font-family="sans-serif"> Sirikhola</text></g><g class="node" transform="translate(56.53951991348895,59.66847153509172)"><circle class="outline" cx="0" cy="0" r="25" fill="#D9C8AE" stroke="#c0a378" stroke-width="2px"/><text text-anchor="middle" pointer-events="none" font-family="sans-serif" dy="1.5625" font-size="25" fill="#2A2C34"/><text text-anchor="middle" pointer-events="none" x="0" y="5" font-size="10px" fill="#2A2C34" font-family="sans-serif"> Gurdum</text></g><g class="node" transform="translate(-18.02158013350069,133.5411259430459)"><circle class="outline" cx="0" cy="0" r="25" fill="#D9C8AE" stroke="#c0a378" stroke-width="2px"/><text text-anchor="middle" pointer-events="none" font-family="sans-serif" dy="1.5625" font-size="25" fill="#2A2C34"/><text text-anchor="middle" pointer-events="none" x="0" y="5" font-size="10px" fill="#2A2C34" font-family="sans-serif"> Rammam</text></g></g></svg>