<svg xmlns="http://www.w3.org/2000/svg" width="395.41387939453125" height="410.7608337402344" viewBox="-96.64977264404297 -115.83395385742188 395.41387939453125 410.7608337402344"><title>Neo4j Graph Visualization</title><desc>Created using Neo4j (http://www.neo4j.com/)</desc><g class="layer relationships"><g class="relationship" transform="translate(101.62396354397812 -86.83395478445361) rotate(386.17982908388865)"><path class="outline" fill="#A5ABB6" stroke="none" d="M 24.018736134675446,-6.953439040707552 L 24.277555179777966,-5.987513214418485 A 107.80115853854842 107.80115853854842 0 0 1 40.87505880329836,-9.066497094984399 L 40.77020381432038,-10.060984616920408 A 108.80115853854842 108.80115853854842 0 0 0 24.018736134675446,-6.953439040707552 Z M 60.167206068565896,-10.367071124808604 L 60.093781685202686,-9.369770337719913 A 107.80115853854842 107.80115853854842 0 0 1 76.7801705483902,-6.816009390401483 L 76.09553164130678,-3.8951756794710564 L 83.70955569174178,-5.7053242256952235 L 77.69302242450145,-10.710454338308718 L 77.00838351741803,-7.789620627378293 A 108.80115853854842 108.80115853854842 0 0 0 60.167206068565896,-10.367071124808604"/><text text-anchor="middle" pointer-events="none" font-size="8px" fill="#000000" x="50.469758433817944" y="-7.147267025670985" font-family="sans-serif">trek</text></g><g class="relationship" transform="translate(198.58937214593044 -39.1634531357849) rotate(411.2403929723258)"><path class="outline" fill="#A5ABB6" stroke="none" d="M 21.40063509461097,-12.933012701892217 L 21.90063509461097,-12.06698729810778 A 66.37694091341346 66.37694091341346 0 0 1 43.611908503594016,-19.960023995412172 L 43.438999103284424,-20.94496172912156 A 67.37694091341346 67.37694091341346 0 0 0 21.40063509461097,-12.933012701892217 Z M 62.84343207157999,-21.51210590932473 L 62.72834334218476,-20.518750693721472 A 66.37694091341346 66.37694091341346 0 0 1 84.86354925880543,-13.90723949177915 L 83.51785104051932,-11.225990472142673 L 91.34408000767158,-11.21415181905096 L 86.6578135498536,-17.482238184627786 L 85.31211533156748,-14.800989164991309 A 67.37694091341346 67.37694091341346 0 0 0 62.84343207157999,-21.51210590932473"/><text text-anchor="middle" pointer-events="none" font-size="8px" fill="#000000" x="53.13529026112701" y="-18.431264625811536" font-family="sans-serif">trek</text></g><g class="relationship" transform="translate(269.7641139004344 49.487982106082136) rotate(499.90978804170385)"><path class="outline" fill="#A5ABB6" stroke="none" d="M 21.40063509461097,12.933012701892217 L 21.90063509461097,12.06698729810778 A 66.72035281223025 66.72035281223025 0 0 0 43.7780967829966,20.01029273238416 L 43.6059946547293,20.99537184466189 A 67.72035281223025 67.72035281223025 0 0 1 21.40063509461097,12.933012701892217 Z M 63.01042760945784,21.560942546841176 L 62.895992055198114,20.567511872902998 A 66.72035281223025 66.72035281223025 0 0 0 85.19896034272287,13.911909968142528 L 83.85282767494826,11.230879039423126 L 91.67905462103057,11.217772231455019 L 86.99380389975568,17.486617873101732 L 85.64767123198106,14.80558694438233 A 67.72035281223025 67.72035281223025 0 0 1 63.01042760945784,21.560942546841176"/><text text-anchor="middle" pointer-events="none" font-size="8px" fill="#000000" x="53.30240724807794" y="24.477285399925478" transform="rotate(180 53.30240724807794 21.477285399925478)" font-family="sans-serif">trek</text></g><g class="relationship" transform="translate(182.53448152926882 122.91668830926065) rotate(475.0553321437047)"><path class="outline" fill="#A5ABB6" stroke="none" d="M 25 0.5 L 47.59261284270849 0.5 L 47.59261284270849 -0.5 L 25 -0.5 Z M 66.92855034270849 0.5 L 89.52116318541698 0.5 L 89.52116318541698 3.5 L 96.52116318541698 0 L 89.52116318541698 -3.5 L 89.52116318541698 -0.5 L 66.92855034270849 -0.5 Z"/><text text-anchor="middle" pointer-events="none" font-size="8px" fill="#000000" x="57.26058159270849" y="3" transform="rotate(180 57.26058159270849 0)" font-family="sans-serif">trek</text></g><g class="relationship" transform="translate(269.7641139004344 49.487982106082136) rotate(499.90978804170385)"><path class="outline" fill="#A5ABB6" stroke="none" d="M 25 0.5 L 42.50463013851278 0.5 L 42.50463013851278 -0.5 L 25 -0.5 Z M 64.51634888851278 0.5 L 82.02097902702556 0.5 L 82.02097902702556 3.5 L 89.02097902702556 0 L 82.02097902702556 -3.5 L 82.02097902702556 -0.5 L 64.51634888851278 -0.5 Z"/><text text-anchor="middle" pointer-events="none" font-size="8px" fill="#000000" x="53.51048951351278" y="3" transform="rotate(180 53.51048951351278 0)" font-family="sans-serif">road</text></g><g class="relationship" transform="translate(269.7641139004344 49.487982106082136) rotate(499.90978804170385)"><path class="outline" fill="#A5ABB6" stroke="none" d="M 21.40063509461097,-12.933012701892217 L 21.90063509461097,-12.06698729810778 A 66.72035281223025 66.72035281223025 0 0 1 30.83824585302811,-16.37527086007472 L 30.472202140453177,-17.305868517757332 A 67.72035281223025 67.72035281223025 0 0 0 21.40063509461097,-12.933012701892217 Z M 76.33681374953383,-18.642659994913444 L 76.02559265611683,-17.692322459607 A 66.72035281223025 66.72035281223025 0 0 1 85.19896034272287,-13.911909968142528 L 83.85282767494826,-11.230879039423126 L 91.67905462103057,-11.217772231455019 L 86.99380389975568,-17.486617873101732 L 85.64767123198106,-14.80558694438233 A 67.72035281223025 67.72035281223025 0 0 0 76.33681374953383,-18.642659994913444"/><text text-anchor="middle" pointer-events="none" font-size="8px" fill="#000000" x="53.30240724807794" y="-18.477285399925478" transform="rotate(180 53.30240724807794 -21.477285399925478)" font-family="sans-serif">twowheeler</text></g><g class="relationship" transform="translate(198.58937214593044 -39.1634531357849) rotate(411.2403929723258)"><path class="outline" fill="#A5ABB6" stroke="none" d="M 25 0.5 L 42.338051543987774 0.5 L 42.338051543987774 -0.5 L 25 -0.5 Z M 64.34977029398777 0.5 L 81.68782183797555 0.5 L 81.68782183797555 3.5 L 88.68782183797555 0 L 81.68782183797555 -3.5 L 81.68782183797555 -0.5 L 64.34977029398777 -0.5 Z"/><text text-anchor="middle" pointer-events="none" font-size="8px" fill="#000000" x="53.343910918987774" y="3" font-family="sans-serif">road</text></g><g class="relationship" transform="translate(198.58937214593044 -39.1634531357849) rotate(411.2403929723258)"><path class="outline" fill="#A5ABB6" stroke="none" d="M 21.40063509461097,12.933012701892217 L 21.90063509461097,12.06698729810778 A 66.37694091341346 66.37694091341346 0 0 0 30.677655416815398,16.307900718325023 L 30.309885378025175,17.23781748802446 A 67.37694091341346 67.37694091341346 0 0 1 21.40063509461097,12.933012701892217 Z M 76.16665043194396,18.57809872508856 L 75.85382018772566,17.62828967148762 A 66.37694091341346 66.37694091341346 0 0 0 84.86354925880543,13.90723949177915 L 83.51785104051932,11.225990472142673 L 91.34408000767158,11.21415181905096 L 86.6578135498536,17.482238184627786 L 85.31211533156748,14.800989164991309 A 67.37694091341346 67.37694091341346 0 0 1 76.16665043194396,18.57809872508856"/><text text-anchor="middle" pointer-events="none" font-size="8px" fill="#000000" x="53.135290261127" y="24.431264625811536" font-family="sans-serif">twowheeler</text></g><g class="relationship" transform="translate(101.62396354397812 -86.83395478445361) rotate(386.17982908388865)"><path class="outline" fill="#A5ABB6" stroke="none" d="M 24.018736134675446,6.953439040707552 L 24.277555179777966,5.987513214418485 A 107.80115853854842 107.80115853854842 0 0 0 39.551582106788054,8.918683630355304 L 39.43445010043427,9.9117999846097 A 108.80115853854842 108.80115853854842 0 0 1 24.018736134675446,6.953439040707552 Z M 61.50700183514051,10.260106913283636 L 61.421263283577524,9.263789242670555 A 107.80115853854842 107.80115853854842 0 0 0 76.7801705483902,6.816009390401483 L 76.09553164130678,3.8951756794710564 L 83.70955569174178,5.7053242256952235 L 77.69302242450145,10.710454338308718 L 77.00838351741803,7.789620627378293 A 108.80115853854842 108.80115853854842 0 0 1 61.50700183514051,10.260106913283636"/><text text-anchor="middle" pointer-events="none" font-size="8px" fill="#000000" x="50.46975843381798" y="13.147267025670985" font-family="sans-serif">road</text></g><g class="relationship" transform="translate(101.62396354397812 -86.83395478445361) rotate(449.12963364918664)"><path class="outline" fill="#A5ABB6" stroke="none" d="M 21.40063509461097,12.933012701892217 L 21.90063509461097,12.06698729810778 A 64.3329312130286 64.3329312130286 0 0 0 22.899911175460534,12.632092267100788 L 22.415444061371495,13.506901740852783 A 65.3329312130286 65.3329312130286 0 0 1 21.40063509461097,12.933012701892217 Z M 82.2687368943125,15.285704767805484 L 81.83707654065054,14.38366854953238 A 64.3329312130286 64.3329312130286 0 0 0 82.86814847700664,13.87890427405565 L 81.52508604073223,11.196333996827361 L 89.35132286325171,11.19218696895341 L 84.65889839203918,17.455664643693364 L 83.31583595576477,14.773094366465077 A 65.3329312130286 65.3329312130286 0 0 1 82.2687368943125,15.285704767805484"/><text text-anchor="middle" pointer-events="none" font-size="8px" fill="#000000" x="52.14115623580081" y="24.157353155204973" font-family="sans-serif">PublicTransport</text></g><g class="relationship" transform="translate(103.32079829540511 24.859232037711934) rotate(411.0677075902802)"><path class="outline" fill="#A5ABB6" stroke="none" d="M 25 0.5 L 49.859946378777636 0.5 L 49.859946378777636 -0.5 L 25 -0.5 Z M 69.19588387877764 0.5 L 94.05583025755527 0.5 L 94.05583025755527 3.5 L 101.05583025755527 0 L 94.05583025755527 -3.5 L 94.05583025755527 -0.5 L 69.19588387877764 -0.5 Z"/><text text-anchor="middle" pointer-events="none" font-size="8px" fill="#000000" x="59.527915128777636" y="3" font-family="sans-serif">trek</text></g><g class="relationship" transform="translate(103.32079829540511 24.859232037711934) rotate(518.6910849401382)"><path class="outline" fill="#A5ABB6" stroke="none" d="M 24.018736134675446,-6.953439040707552 L 24.277555179777966,-5.987513214418485 A 138.65232940999394 138.65232940999394 0 0 1 48.61609726197542,-10.230294819979605 L 48.53281469855889,-11.226820792862782 A 139.65232940999394 139.65232940999394 0 0 0 24.018736134675446,-6.953439040707552 Z M 67.92074792324468,-11.49636043527488 L 67.86520048427889,-10.497904386154858 A 138.65232940999394 138.65232940999394 0 0 1 92.31228344329898,-6.933362166714472 L 91.61668319840179,-4.015119493580698 L 99.23744972142732,-5.79666870747664 L 93.23975043649524,-10.824352397559505 L 92.54415019159805,-7.906109724425731 A 139.65232940999394 139.65232940999394 0 0 0 67.92074792324468,-11.49636043527488"/><text text-anchor="middle" pointer-events="none" font-size="8px" fill="#000000" x="58.22904823538184" y="-8.198531184103643" transform="rotate(180 58.22904823538184 -11.198531184103643)" font-family="sans-serif">trek</text></g><g class="relationship" transform="translate(-11.78838732026378 69.75906264437084) rotate(424.274581710137)"><path class="outline" fill="#A5ABB6" stroke="none" d="M 24.018736134675446,-6.953439040707552 L 24.277555179777966,-5.987513214418485 A 113.13442091223114 113.13442091223114 0 0 1 42.208063288554165,-9.271617354997332 L 42.1077327738582,-10.266571518675661 A 114.13442091223114 114.13442091223114 0 0 0 24.018736134675446,-6.953439040707552 Z M 61.503022272750485,-10.565671112430024 L 61.43341904314851,-9.568096358123881 A 113.13442091223114 113.13442091223114 0 0 1 79.45666678911161,-6.838444048269726 L 78.76993232019093,-3.9181023269644566 L 86.38525321697736,-5.72278724100568 L 80.37231274767252,-10.732233010010086 L 79.68557827875185,-7.811891288704817 A 114.13442091223114 114.13442091223114 0 0 0 61.503022272750485,-10.565671112430024"/><text text-anchor="middle" pointer-events="none" font-size="8px" fill="#000000" x="51.806721574028046" y="-7.328965553954333" font-family="sans-serif">trek</text></g><g class="relationship" transform="translate(36.27122436644353 169.50629178882394) rotate(393.81391704730254)"><path class="outline" fill="#A5ABB6" stroke="none" d="M 24.018736134675446,6.953439040707552 L 24.277555179777966,5.987513214418485 A 119.86732814972504 119.86732814972504 0 0 0 43.89428566380663,9.527872923285216 L 43.79912030805243,10.523334401728349 A 120.86732814972504 120.86732814972504 0 0 1 24.018736134675446,6.953439040707552 Z M 63.19232935315536,10.814041914753403 L 63.127044326312536,9.816175257694397 A 119.86732814972504 119.86732814972504 0 0 0 82.84107817483475,6.8653904179428835 L 82.15182674971025,3.9456417176325544 L 89.76870037974626,5.743761876037453 L 83.76008007500074,10.758388685023322 L 83.07082864987625,7.838639984712993 A 120.86732814972504 120.86732814972504 0 0 1 63.19232935315536,10.814041914753403"/><text text-anchor="middle" pointer-events="none" font-size="8px" fill="#000000" x="53.49737848756945" y="13.558372071504067" font-family="sans-serif">trek</text></g><g class="relationship" transform="translate(36.27122436644353 169.50629178882394) rotate(393.81391704730254)"><path class="outline" fill="#A5ABB6" stroke="none" d="M 24.018736134675446,-6.953439040707552 L 24.277555179777966,-5.987513214418485 A 119.86732814972504 119.86732814972504 0 0 1 30.548285174555787,-7.488215345664216 L 30.341780050949417,-8.466660864803785 A 120.86732814972504 120.86732814972504 0 0 0 24.018736134675446,-6.953439040707552 Z M 76.70526902225646,-9.161657476384022 L 76.52818422391243,-8.177461878855027 A 119.86732814972504 119.86732814972504 0 0 1 82.84107817483475,-6.8653904179428835 L 82.15182674971025,-3.9456417176325544 L 89.76870037974626,-5.743761876037453 L 83.76008007500074,-10.758388685023322 L 83.07082864987625,-7.838639984712993 A 120.86732814972504 120.86732814972504 0 0 0 76.70526902225646,-9.161657476384022"/><text text-anchor="middle" pointer-events="none" font-size="8px" fill="#000000" x="53.497378487569456" y="-7.558372071504067" font-family="sans-serif">twowheeler</text></g><g class="relationship" transform="translate(-11.78838732026378 69.75906264437084) rotate(424.274581710137)"><path class="outline" fill="#A5ABB6" stroke="none" d="M 24.018736134675446,6.953439040707552 L 24.277555179777966,5.987513214418485 A 113.13442091223114 113.13442091223114 0 0 0 28.884097791208838,7.118884439768323 L 28.665996173873104,8.09481050485499 A 114.13442091223114 114.13442091223114 0 0 1 24.018736134675446,6.953439040707552 Z M 75.00533371171177,8.809420979383106 L 74.81742864703637,7.827233784053561 A 113.13442091223114 113.13442091223114 0 0 0 79.45666678911161,6.838444048269726 L 78.76993232019093,3.9181023269644566 L 86.38525321697736,5.72278724100568 L 80.37231274767252,10.732233010010086 L 79.68557827875185,7.811891288704817 A 114.13442091223114 114.13442091223114 0 0 1 75.00533371171177,8.809420979383106"/><text text-anchor="middle" pointer-events="none" font-size="8px" fill="#000000" x="51.80672157402808" y="13.328965553954333" font-family="sans-serif">twowheeler</text></g><g class="relationship" transform="translate(103.32079829540511 24.859232037711934) rotate(518.6910849401382)"><path class="outline" fill="#A5ABB6" stroke="none" d="M 24.018736134675446,6.953439040707552 L 24.277555179777966,5.987513214418485 A 138.65232940999394 138.65232940999394 0 0 0 35.22347697146963,8.450511273378225 L 35.043603024788965,9.434200941569117 A 139.65232940999394 139.65232940999394 0 0 1 24.018736134675446,6.953439040707552 Z M 81.45458023070918,10.079426920795783 L 81.30212189620272,9.091117021908047 A 138.65232940999394 138.65232940999394 0 0 0 92.31228344329898,6.933362166714472 L 91.61668319840179,4.015119493580698 L 99.23744972142732,5.79666870747664 L 93.23975043649524,10.824352397559505 L 92.54415019159805,7.906109724425731 A 139.65232940999394 139.65232940999394 0 0 1 81.45458023070918,10.079426920795783"/><text text-anchor="middle" pointer-events="none" font-size="8px" fill="#000000" x="58.22904823538186" y="14.198531184103643" transform="rotate(180 58.22904823538186 11.198531184103643)" font-family="sans-serif">twowheeler</text></g><g class="relationship" transform="translate(101.62396354397812 -86.83395478445361) rotate(449.12963364918664)"><path class="outline" fill="#A5ABB6" stroke="none" d="M 25 0.5 L 41.34717821174372 0.5 L 41.34717821174372 -0.5 L 25 -0.5 Z M 63.35889696174372 0.5 L 79.70607517348743 0.5 L 79.70607517348743 3.5 L 86.70607517348743 0 L 79.70607517348743 -3.5 L 79.70607517348743 -0.5 L 63.35889696174372 -0.5 Z"/><text text-anchor="middle" pointer-events="none" font-size="8px" fill="#000000" x="52.35303758674372" y="3" font-family="sans-serif">road</text></g><g class="relationship" transform="translate(101.62396354397812 -86.83395478445361) rotate(449.12963364918664)"><path class="outline" fill="#A5ABB6" stroke="none" d="M 21.40063509461097,-12.933012701892217 L 21.90063509461097,-12.06698729810778 A 64.3329312130286 64.3329312130286 0 0 1 42.62354419248079,-19.659993528739697 L 42.44566396391246,-20.644045673844047 A 65.3329312130286 65.3329312130286 0 0 0 21.40063509461097,-12.933012701892217 Z M 61.850020133728506,-21.220731197016136 L 61.73089308266714,-20.227852178351014 A 64.3329312130286 64.3329312130286 0 0 1 82.86814847700664,-13.87890427405565 L 81.52508604073223,-11.196333996827361 L 89.35132286325171,-11.19218696895341 L 84.65889839203918,-17.455664643693364 L 83.31583595576477,-14.773094366465077 A 65.3329312130286 65.3329312130286 0 0 0 61.850020133728506,-21.220731197016136"/><text text-anchor="middle" pointer-events="none" font-size="8px" fill="#000000" x="52.1411562358008" y="-18.157353155204973" font-family="sans-serif">trek</text></g><g class="relationship" transform="translate(103.32079829540511 24.859232037711934) rotate(326.0979862969883)"><path class="outline" fill="#A5ABB6" stroke="none" d="M 25 0.5 L 44.22324438480333 0.5 L 44.22324438480333 -0.5 L 25 -0.5 Z M 63.55918188480333 0.5 L 82.78242626960666 0.5 L 82.78242626960666 3.5 L 89.78242626960666 0 L 82.78242626960666 -3.5 L 82.78242626960666 -0.5 L 63.55918188480333 -0.5 Z"/><text text-anchor="middle" pointer-events="none" font-size="8px" fill="#000000" x="53.89121313480333" y="3" font-family="sans-serif">trek</text></g><g class="relationship" transform="translate(-11.78838732026378 69.75906264437084) rotate(478.1342376684979)"><path class="outline" fill="#A5ABB6" stroke="none" d="M 24.018736134675446,-6.953439040707552 L 24.277555179777966,-5.987513214418485 A 128.5511072703058 128.5511072703058 0 0 1 46.07412603505516,-9.854617453312471 L 45.98486267343225,-10.850625511649241 A 129.5511072703058 129.5511072703058 0 0 0 24.018736134675446,-6.953439040707552 Z M 65.37553501942566,-11.131160546902635 L 65.315122529143,-10.132987049449497 A 128.5511072703058 128.5511072703058 0 0 1 87.21444228298155,-6.898054196556454 L 86.52213990840332,-3.9790274028881707 L 94.14088853063726,-5.769186454818621 L 88.13751211575254,-10.790089921447498 L 87.44520974117431,-7.871063127779215 A 129.5511072703058 129.5511072703058 0 0 0 65.37553501942566,-11.131160546902635"/><text text-anchor="middle" pointer-events="none" font-size="8px" fill="#000000" x="55.6821752656003" y="-7.854282297089071" transform="rotate(180 55.6821752656003 -10.854282297089071)" font-family="sans-serif">trek</text></g><g class="relationship" transform="translate(-67.64976984249344 174.22784070925664) rotate(357.3986111805252)"><path class="outline" fill="#A5ABB6" stroke="none" d="M 21.40063509461097,12.933012701892217 L 21.90063509461097,12.06698729810778 A 56.39142969657845 56.39142969657845 0 0 0 38.79814031818604,18.47859742680221 L 38.597787007665175,19.458321138347117 A 57.39142969657845 57.39142969657845 0 0 1 21.40063509461097,12.933012701892217 Z M 58.00011045602779,20.075160996645316 L 57.862393717572,19.084689341347143 A 56.39142969657845 56.39142969657845 0 0 0 75.13304059391956,13.759355202006295 L 73.80109933339119,11.071245740227985 L 81.62728621482368,11.099510504403135 L 76.90896227462406,17.343501151044045 L 75.57702101409569,14.655391689265732 A 57.39142969657845 57.39142969657845 0 0 1 58.00011045602779,20.075160996645316"/><text text-anchor="middle" pointer-events="none" font-size="8px" fill="#000000" x="48.28856748099316" y="23.093277013812227" font-family="sans-serif">trek</text></g><g class="relationship" transform="translate(-67.64976984249344 174.22784070925664) rotate(357.3986111805252)"><path class="outline" fill="#A5ABB6" stroke="none" d="M 25 0.5 L 37.508239823154796 0.5 L 37.508239823154796 -0.5 L 25 -0.5 Z M 59.519958573154796 0.5 L 72.02819839630959 0.5 L 72.02819839630959 3.5 L 79.02819839630959 0 L 72.02819839630959 -3.5 L 72.02819839630959 -0.5 L 59.519958573154796 -0.5 Z"/><text text-anchor="middle" pointer-events="none" font-size="8px" fill="#000000" x="48.514099198154796" y="3" font-family="sans-serif">road</text></g><g class="relationship" transform="translate(-67.64976984249344 174.22784070925664) rotate(357.3986111805252)"><path class="outline" fill="#A5ABB6" stroke="none" d="M 21.40063509461097,-12.933012701892217 L 21.90063509461097,-12.06698729810778 A 56.39142969657845 56.39142969657845 0 0 1 26.06958962251732,-14.247320266141848 L 25.643518489906175,-15.152009931140547 A 57.39142969657845 57.39142969657845 0 0 0 21.40063509461097,-12.933012701892217 Z M 71.20175529289372,-16.600400192681235 L 70.83401039680776,-15.67047347976095 A 56.39142969657845 56.39142969657845 0 0 1 75.13304059391956,-13.759355202006295 L 73.80109933339119,-11.071245740227985 L 81.62728621482368,-11.099510504403135 L 76.90896227462406,-17.343501151044045 L 75.57702101409569,-14.655391689265732 A 57.39142969657845 57.39142969657845 0 0 0 71.20175529289372,-16.600400192681235"/><text text-anchor="middle" pointer-events="none" font-size="8px" fill="#000000" x="48.288567480993144" y="-17.093277013812227" font-family="sans-serif">twowheeler</text></g><g class="relationship" transform="translate(-11.78838732026378 69.75906264437084) rotate(478.1342376684979)"><path class="outline" fill="#A5ABB6" stroke="none" d="M 24.018736134675446,6.953439040707552 L 24.277555179777966,5.987513214418485 A 128.5511072703058 128.5511072703058 0 0 0 32.70426161827477,7.944093106893263 L 32.51099398394911,8.925239182420327 A 129.5511072703058 129.5511072703058 0 0 1 24.018736134675446,6.953439040707552 Z M 78.89946396877326,9.596365527620677 L 78.73466079257287,8.610039053721565 A 128.5511072703058 128.5511072703058 0 0 0 87.21444228298155,6.898054196556454 L 86.52213990840332,3.9790274028881707 L 94.14088853063726,5.769186454818621 L 88.13751211575254,10.790089921447498 L 87.44520974117431,7.871063127779215 A 129.5511072703058 129.5511072703058 0 0 1 78.89946396877326,9.596365527620677"/><text text-anchor="middle" pointer-events="none" font-size="8px" fill="#000000" x="55.68217526560029" y="13.854282297089071" transform="rotate(180 55.68217526560029 10.854282297089071)" font-family="sans-serif">twowheeler</text></g><g class="relationship" transform="translate(-67.64976984249344 174.22784070925664) rotate(408.10210827705896)"><path class="outline" fill="#A5ABB6" stroke="none" d="M 25 0.5 L 48.42990567223972 0.5 L 48.42990567223972 -0.5 L 25 -0.5 Z M 67.76584317223973 0.5 L 91.19574884447944 0.5 L 91.19574884447944 3.5 L 98.19574884447944 0 L 91.19574884447944 -3.5 L 91.19574884447944 -0.5 L 67.76584317223973 -0.5 Z"/><text text-anchor="middle" pointer-events="none" font-size="8px" fill="#000000" x="58.09787442223972" y="3" font-family="sans-serif">trek</text></g><g class="relationship" transform="translate(14.620987794598804 265.9268863486246) rotate(344.2126581727897)"><path class="outline" fill="#A5ABB6" stroke="none" d="M 25 0.5 L 47.33953475630021 0.5 L 47.33953475630021 -0.5 L 25 -0.5 Z M 66.67547225630021 0.5 L 89.01500701260042 0.5 L 89.01500701260042 3.5 L 96.01500701260042 0 L 89.01500701260042 -3.5 L 89.01500701260042 -0.5 L 66.67547225630021 -0.5 Z"/><text text-anchor="middle" pointer-events="none" font-size="8px" fill="#000000" x="57.00750350630021" y="3" font-family="sans-serif">trek</text></g></g><g class="layer nodes"><g class="node" transform="translate(101.62396354397812,-86.83395478445361)"><circle class="outline" cx="0" cy="0" r="25" fill="#8DCC93" stroke="#5db665" stroke-width="2px"/><text text-anchor="middle" pointer-events="none" font-family="sans-serif" dy="1.5625" font-size="25" fill="#2A2C34"/><text text-anchor="middle" pointer-events="none" x="0" y="5" font-size="10px" fill="#2A2C34" font-family="sans-serif"> Darjeeling</text></g><g class="node" transform="translate(131.07108172435733,233.0026164856474)"><circle class="outline" cx="0" cy="0" r="25" fill="#F16667" stroke="#eb2728" stroke-width="2px"/><text text-anchor="middle" pointer-events="none" font-family="sans-serif" dy="1.5625" font-size="25" fill="#FFFFFF"/><text text-anchor="middle" pointer-events="none" x="0" y="5" font-size="10px" fill="#FFFFFF" font-family="sans-serif"> Sandak…</text></g><g class="node" transform="translate(198.58937214593044,-39.1634531357849)"><circle class="outline" cx="0" cy="0" r="25" fill="#D9C8AE" stroke="#c0a378" stroke-width="2px"/><text text-anchor="middle" pointer-events="none" font-family="sans-serif" dy="1.5625" font-size="25" fill="#2A2C34"/><text text-anchor="middle" pointer-events="none" x="0" y="5" font-size="10px" fill="#2A2C34" font-family="sans-serif"> Tumbling</text></g><g class="node" transform="translate(269.7641139004344,49.487982106082136)"><circle class="outline" cx="0" cy="0" r="25" fill="#D9C8AE" stroke="#c0a378" stroke-width="2px"/><text text-anchor="middle" pointer-events="none" font-family="sans-serif" dy="1.5625" font-size="25" fill="#2A2C34"/><text text-anchor="middle" pointer-events="none" x="0" y="5" font-size="10px" fill="#2A2C34" font-family="sans-serif"> Gairibus</text></g><g class="node" transform="translate(182.53448152926882,122.91668830926065)"><circle class="outline" cx="0" cy="0" r="25" fill="#D9C8AE" stroke="#c0a378" stroke-width="2px"/><text text-anchor="middle" pointer-events="none" font-family="sans-serif" dy="1.5625" font-size="25" fill="#2A2C34"/><text text-anchor="middle" pointer-events="none" x="0" y="5" font-size="10px" fill="#2A2C34" font-family="sans-serif"> BhikeBh…</text></g><g class="node" transform="translate(103.32079829540511,24.859232037711934)"><circle class="outline" cx="0" cy="0" r="25" fill="#8DCC93" stroke="#5db665" stroke-width="2px"/><text text-anchor="middle" pointer-events="none" font-family="sans-serif" dy="1.5625" font-size="25" fill="#2A2C34"/><text text-anchor="middle" pointer-events="none" x="0" y="5" font-size="10px" fill="#2A2C34" font-family="sans-serif"> Rimbik</text></g><g class="node" transform="translate(-11.78838732026378,69.75906264437084)"><circle class="outline" cx="0" cy="0" r="25" fill="#D9C8AE" stroke="#c0a378" stroke-width="2px"/><text text-anchor="middle" pointer-events="none" font-family="sans-serif" dy="1.5625" font-size="25" fill="#2A2C34"/><text text-anchor="middle" pointer-events="none" x="0" y="5" font-size="10px" fill="#2A2C34" font-family="sans-serif"> Sirikhola</text></g><g class="node" transform="translate(36.27122436644353,169.50629178882394)"><circle class="outline" cx="0" cy="0" r="25" fill="#D9C8AE" stroke="#c0a378" stroke-width="2px"/><text text-anchor="middle" pointer-events="none" font-family="sans-serif" dy="1.5625" font-size="25" fill="#2A2C34"/><text text-anchor="middle" pointer-events="none" x="0" y="5" font-size="10px" fill="#2A2C34" font-family="sans-serif"> Gurdum</text></g><g class="node" transform="translate(-67.64976984249344,174.22784070925664)"><circle class="outline" cx="0" cy="0" r="25" fill="#D9C8AE" stroke="#c0a378" stroke-width="2px"/><text text-anchor="middle" pointer-events="none" font-family="sans-serif" dy="1.5625" font-size="25" fill="#2A2C34"/><text text-anchor="middle" pointer-events="none" x="0" y="5" font-size="10px" fill="#2A2C34" font-family="sans-serif"> Rammam</text></g><g class="node" transform="translate(14.620987794598804,265.9268863486246)"><circle class="outline" cx="0" cy="0" r="25" fill="#F16667" stroke="#eb2728" stroke-width="2px"/><text text-anchor="middle" pointer-events="none" font-family="sans-serif" dy="1.5625" font-size="25" fill="#FFFFFF"/><text text-anchor="middle" pointer-events="none" x="0" y="5" font-size="10px" fill="#FFFFFF" font-family="sans-serif"> Sabargr…</text></g></g></svg>