<svg xmlns="http://www.w3.org/2000/svg" width="251.07760620117188" height="255.49859619140625" viewBox="-28.91080665588379 -20.74603843688965 251.07760620117188 255.49859619140625"><title>Neo4j Graph Visualization</title><desc>Created using Neo4j (http://www.neo4j.com/)</desc><g class="layer relationships"><g class="relationship" transform="translate(148.38379144648707 205.75256478959585) rotate(234.75632415038007)"><path class="outline" fill="#A5ABB6" stroke="none" d="M 25 0.5 L 29.67393731101074 0.5 L 29.67393731101074 -0.5 L 25 -0.5 Z M 75.23643731101075 0.5 L 79.91037462202148 0.5 L 79.91037462202148 3.5 L 86.91037462202148 0 L 79.91037462202148 -3.5 L 79.91037462202148 -0.5 L 75.23643731101075 -0.5 Z"/><text text-anchor="middle" pointer-events="none" font-size="8px" fill="#000000" x="52.45518731101074" y="3" transform="rotate(180 52.45518731101074 0)" font-family="sans-serif">ACTED_IN</text></g><g class="relationship" transform="translate(193.16679727293888 91.14633912452067) rotate(528.0185779284885)"><path class="outline" fill="#A5ABB6" stroke="none" d="M 25 0.5 L 34.511757787859196 0.5 L 34.511757787859196 -0.5 L 25 -0.5 Z M 70.2851952878592 0.5 L 79.79695307571839 0.5 L 79.79695307571839 3.5 L 86.79695307571839 0 L 79.79695307571839 -3.5 L 79.79695307571839 -0.5 L 70.2851952878592 -0.5 Z"/><text text-anchor="middle" pointer-events="none" font-size="8px" fill="#000000" x="52.398476537859196" y="3" transform="rotate(180 52.398476537859196 0)" font-family="sans-serif">WROTE</text></g><g class="relationship" transform="translate(118.99458675000685 8.253961977744236) rotate(468.34854348514494)"><path class="outline" fill="#A5ABB6" stroke="none" d="M 25 0.5 L 34.50528655769238 0.5 L 34.50528655769238 -0.5 L 25 -0.5 Z M 70.27872405769239 0.5 L 79.78401061538476 0.5 L 79.78401061538476 3.5 L 86.78401061538476 0 L 79.78401061538476 -3.5 L 79.78401061538476 -0.5 L 70.27872405769239 -0.5 Z"/><text text-anchor="middle" pointer-events="none" font-size="8px" fill="#000000" x="52.39200530769238" y="3" transform="rotate(180 52.39200530769238 0)" font-family="sans-serif">WROTE</text></g><g class="relationship" transform="translate(0.08919265039091548 40.12778812248586) rotate(401.56182313861655)"><path class="outline" fill="#A5ABB6" stroke="none" d="M 25 0.5 L 28.996710064432023 0.5 L 28.996710064432023 -0.5 L 25 -0.5 Z M 75.88733506443202 0.5 L 79.88404512886405 0.5 L 79.88404512886405 3.5 L 86.88404512886405 0 L 79.88404512886405 -3.5 L 79.88404512886405 -0.5 L 75.88733506443202 -0.5 Z"/><text text-anchor="middle" pointer-events="none" font-size="8px" fill="#000000" x="52.44202256443202" y="3" font-family="sans-serif">DIRECTED</text></g><g class="relationship" transform="translate(2.274288840551954 187.46458183118156) rotate(318.11706651343195)"><path class="outline" fill="#A5ABB6" stroke="none" d="M 25 0.5 L 28.473560555146356 0.5 L 28.473560555146356 -0.5 L 25 -0.5 Z M 74.03606055514635 0.5 L 77.50962111029271 0.5 L 77.50962111029271 3.5 L 84.50962111029271 0 L 77.50962111029271 -3.5 L 77.50962111029271 -0.5 L 74.03606055514635 -0.5 Z"/><text text-anchor="middle" pointer-events="none" font-size="8px" fill="#000000" x="51.254810555146356" y="3" font-family="sans-serif">ACTED_IN</text></g></g><g class="layer nodes"><g class="node" transform="translate(148.38379144648707,205.75256478959585)"><circle class="outline" cx="0" cy="0" r="25" fill="#57C7E3" stroke="#23b3d7" stroke-width="2px"/><text text-anchor="middle" pointer-events="none" font-family="sans-serif" dy="1.5625" font-size="25" fill="#2A2C34"/><text text-anchor="middle" pointer-events="none" font-family="sans-serif" dy="1.5625" font-size="25" fill="#2A2C34"/><text text-anchor="middle" pointer-events="none" font-family="sans-serif" dy="1.5625" font-size="25" fill="#2A2C34"/><text text-anchor="middle" pointer-events="none" x="0" y="-5" font-size="10px" fill="#2A2C34" font-family="sans-serif"> Samuel</text><text text-anchor="middle" pointer-events="none" x="0" y="5" font-size="10px" fill="#2A2C34" font-family="sans-serif"> L.</text><text text-anchor="middle" pointer-events="none" x="0" y="15" font-size="10px" fill="#2A2C34" font-family="sans-serif"> Jackson</text></g><g class="node" transform="translate(83.80534486121779,114.35477387168191)"><circle class="outline" cx="0" cy="0" r="25" fill="#F79767" stroke="#f36924" stroke-width="2px"/><text text-anchor="middle" pointer-events="none" font-family="sans-serif" dy="1.5625" font-size="25" fill="#FFFFFF"/><text text-anchor="middle" pointer-events="none" font-family="sans-serif" dy="1.5625" font-size="25" fill="#FFFFFF"/><text text-anchor="middle" pointer-events="none" x="0" y="0" font-size="10px" fill="#FFFFFF" font-family="sans-serif"> Capitan</text><text text-anchor="middle" pointer-events="none" x="0" y="10" font-size="10px" fill="#FFFFFF" font-family="sans-serif"> Americ…</text></g><g class="node" transform="translate(193.16679727293888,91.14633912452067)"><circle class="outline" cx="0" cy="0" r="25" fill="#57C7E3" stroke="#23b3d7" stroke-width="2px"/><text text-anchor="middle" pointer-events="none" font-family="sans-serif" dy="1.5625" font-size="25" fill="#2A2C34"/><text text-anchor="middle" pointer-events="none" x="0" y="5" font-size="10px" fill="#2A2C34" font-family="sans-serif"> Christop…</text></g><g class="node" transform="translate(118.99458675000685,8.253961977744236)"><circle class="outline" cx="0" cy="0" r="25" fill="#57C7E3" stroke="#23b3d7" stroke-width="2px"/><text text-anchor="middle" pointer-events="none" font-family="sans-serif" dy="1.5625" font-size="25" fill="#2A2C34"/><text text-anchor="middle" pointer-events="none" font-family="sans-serif" dy="1.5625" font-size="25" fill="#2A2C34"/><text text-anchor="middle" pointer-events="none" x="0" y="0" font-size="10px" fill="#2A2C34" font-family="sans-serif"> Stephen</text><text text-anchor="middle" pointer-events="none" x="0" y="10" font-size="10px" fill="#2A2C34" font-family="sans-serif"> McFeely</text></g><g class="node" transform="translate(0.08919265039091548,40.12778812248586)"><circle class="outline" cx="0" cy="0" r="25" fill="#57C7E3" stroke="#23b3d7" stroke-width="2px"/><text text-anchor="middle" pointer-events="none" font-family="sans-serif" dy="1.5625" font-size="25" fill="#2A2C34"/><text text-anchor="middle" pointer-events="none" font-family="sans-serif" dy="1.5625" font-size="25" fill="#2A2C34"/><text text-anchor="middle" pointer-events="none" x="0" y="0" font-size="10px" fill="#2A2C34" font-family="sans-serif"> Joe</text><text text-anchor="middle" pointer-events="none" x="0" y="10" font-size="10px" fill="#2A2C34" font-family="sans-serif"> Johnston</text></g><g class="node" transform="translate(2.274288840551954,187.46458183118156)"><circle class="outline" cx="0" cy="0" r="25" fill="#57C7E3" stroke="#23b3d7" stroke-width="2px"/><text text-anchor="middle" pointer-events="none" font-family="sans-serif" dy="1.5625" font-size="25" fill="#2A2C34"/><text text-anchor="middle" pointer-events="none" font-family="sans-serif" dy="1.5625" font-size="25" fill="#2A2C34"/><text text-anchor="middle" pointer-events="none" x="0" y="0" font-size="10px" fill="#2A2C34" font-family="sans-serif"> Chris</text><text text-anchor="middle" pointer-events="none" x="0" y="10" font-size="10px" fill="#2A2C34" font-family="sans-serif"> Evans</text></g></g></svg>