<svg xmlns="http://www.w3.org/2000/svg" width="357.3417053222656" height="368.65777587890625" viewBox="-92.7164077758789 -78.17232513427734 357.3417053222656 368.65777587890625"><title>Neo4j Graph Visualization</title><desc>Created using Neo4j (http://www.neo4j.com/)</desc><g class="layer relationships"><g class="relationship" transform="translate(135.97460659824662 261.48542800216575) rotate(332.37085687579497)"><path class="outline" fill="#A5ABB6" stroke="none" d="M 21.40063509461097,12.933012701892217 L 21.90063509461097,12.06698729810778 A 58.08479438067093 58.08479438067093 0 0 0 26.64941088151448,14.524512857227066 L 26.231166801244203,15.432847536361841 A 59.08479438067093 59.08479438067093 0 0 1 21.40063509461097,12.933012701892217 Z M 72.24716676885123,16.874394441539366 L 71.88659795064316,15.941661828548888 A 58.08479438067093 58.08479438067093 0 0 0 76.77988535121024,13.78619395278344 L 75.44544731066541,11.099323074615512 L 83.27165707369288,11.120317004540176 L 78.55913607193666,17.368688457007345 L 77.22469803139184,14.681817578839416 A 59.08479438067093 59.08479438067093 0 0 1 72.24716676885123,16.874394441539366"/><text text-anchor="middle" pointer-events="none" font-size="8px" fill="#000000" x="49.1086416554681" y="23.320148166758813" font-family="sans-serif">DIRECTED</text></g><g class="relationship" transform="translate(135.97460659824662 261.48542800216575) rotate(332.37085687579497)"><path class="outline" fill="#A5ABB6" stroke="none" d="M 25 0.5 L 31.44440511254613 0.5 L 31.44440511254613 -0.5 L 25 -0.5 Z M 67.21784261254612 0.5 L 73.66224772509226 0.5 L 73.66224772509226 3.5 L 80.66224772509226 0 L 73.66224772509226 -3.5 L 73.66224772509226 -0.5 L 67.21784261254612 -0.5 Z"/><text text-anchor="middle" pointer-events="none" font-size="8px" fill="#000000" x="49.33112386254613" y="3" font-family="sans-serif">WROTE</text></g><g class="relationship" transform="translate(135.97460659824662 261.48542800216575) rotate(332.37085687579497)"><path class="outline" fill="#A5ABB6" stroke="none" d="M 21.40063509461097,-12.933012701892217 L 21.90063509461097,-12.06698729810778 A 58.08479438067093 58.08479438067093 0 0 1 24.469004089020984,-13.464845445976266 L 24.013221668196316,-14.354936668754696 A 59.08479438067093 59.08479438067093 0 0 0 21.40063509461097,-12.933012701892217 Z M 74.5282322358225,-15.937424438226927 L 74.12905677624619,-15.02054988166423 A 58.08479438067093 58.08479438067093 0 0 1 76.77988535121024,-13.78619395278344 L 75.44544731066541,-11.099323074615512 L 83.27165707369288,-11.120317004540176 L 78.55913607193666,-17.368688457007345 L 77.22469803139184,-14.681817578839416 A 59.08479438067093 59.08479438067093 0 0 0 74.5282322358225,-15.937424438226927"/><text text-anchor="middle" pointer-events="none" font-size="8px" fill="#000000" x="49.10864165546808" y="-17.320148166758806" font-family="sans-serif">PRODUCED</text></g><g class="relationship" transform="translate(235.62531703785868 -0.6333831735461279) rotate(525.22877391764)"><path class="outline" fill="#A5ABB6" stroke="none" d="M 24.018736134675446,6.953439040707552 L 24.277555179777966,5.987513214418485 A 101.41085516753346 101.41085516753346 0 0 0 25.80012586450591,6.382853966249428 L 25.556320702110646,7.352678199185178 A 102.41085516753346 102.41085516753346 0 0 1 24.018736134675446,6.953439040707552 Z M 72.25629611882297,8.110704937094837 L 72.04409517385476,7.133478883945116 A 101.41085516753346 101.41085516753346 0 0 0 73.57869459668663,6.787761641831054 L 72.89669427192855,3.8663107082999315 L 80.5090801623856,5.68333603965071 L 74.48802836303075,10.683029553205884 L 73.80602803827267,7.761578619674761 A 102.41085516753346 102.41085516753346 0 0 1 72.25629611882297,8.110704937094837"/><text text-anchor="middle" pointer-events="none" font-size="8px" fill="#000000" x="48.870632601395904" y="12.929581593994556" transform="rotate(180 48.870632601395904 9.929581593994556)" font-family="sans-serif">DIRECTED</text></g><g class="relationship" transform="translate(235.62531703785868 -0.6333831735461279) rotate(525.22877391764)"><path class="outline" fill="#A5ABB6" stroke="none" d="M 24.018736134675446,-6.953439040707552 L 24.277555179777966,-5.987513214418485 A 101.41085516753346 101.41085516753346 0 0 1 31.198645151728968,-7.584489151331383 L 31.008074125642924,-8.5661625613902 A 102.41085516753346 102.41085516753346 0 0 0 24.018736134675446,-6.953439040707552 Z M 66.76803091347946,-9.146612618371904 L 66.60942062739565,-8.159271351560676 A 101.41085516753346 101.41085516753346 0 0 1 73.57869459668663,-6.787761641831054 L 72.89669427192855,-3.8663107082999315 L 80.5090801623856,-5.68333603965071 L 74.48802836303075,-10.683029553205884 L 73.80602803827267,-7.761578619674761 A 102.41085516753346 102.41085516753346 0 0 0 66.76803091347946,-9.146612618371904"/><text text-anchor="middle" pointer-events="none" font-size="8px" fill="#000000" x="48.870632601395855" y="-6.9295815939945555" transform="rotate(180 48.870632601395855 -9.929581593994556)" font-family="sans-serif">WROTE</text></g><g class="relationship" transform="translate(60.52413493732358 -49.172324677574615) rotate(405.6001880799262)"><path class="outline" fill="#A5ABB6" stroke="none" d="M 24.018736134675446,6.953439040707552 L 24.277555179777966,5.987513214418485 A 102.41029219252962 102.41029219252962 0 0 0 31.445514236912643,7.634746136488047 L 31.256687757046233,8.616756605119235 A 103.41029219252962 103.41029219252962 0 0 1 24.018736134675446,6.953439040707552 Z M 67.01854685026586,9.1946523342569 L 66.86154838045863,8.207053488328967 A 102.41029219252962 102.41029219252962 0 0 0 74.07898806292316,6.792282208476802 L 73.39656547578488,3.870929882487434 L 81.0092139214214,5.686854892819035 L 74.98888484577421,10.687418643129293 L 74.30646225863593,7.766066317139925 A 103.41029219252962 103.41029219252962 0 0 1 67.01854685026586,9.1946523342569"/><text text-anchor="middle" pointer-events="none" font-size="8px" fill="#000000" x="49.12052177241105" y="12.963625386355247" font-family="sans-serif">WROTE</text></g><g class="relationship" transform="translate(60.52413493732358 -49.172324677574615) rotate(405.6001880799262)"><path class="outline" fill="#A5ABB6" stroke="none" d="M 24.018736134675446,-6.953439040707552 L 24.277555179777966,-5.987513214418485 A 102.41029219252962 102.41029219252962 0 0 1 26.044281308520286,-6.444075558143183 L 25.802713714330736,-7.414459552981029 A 103.41029219252962 103.41029219252962 0 0 0 24.018736134675446,-6.953439040707552 Z M 72.50852025734952,-8.169204602917716 L 72.29843255154184,-7.19152205941576 A 102.41029219252962 102.41029219252962 0 0 1 74.07898806292316,-6.792282208476802 L 73.39656547578488,-3.870929882487434 L 81.0092139214214,-5.686854892819035 L 74.98888484577421,-10.687418643129293 L 74.30646225863593,-7.766066317139925 A 103.41029219252962 103.41029219252962 0 0 0 72.50852025734952,-8.169204602917716"/><text text-anchor="middle" pointer-events="none" font-size="8px" fill="#000000" x="49.12052177241104" y="-6.963625386355247" font-family="sans-serif">DIRECTED</text></g><g class="relationship" transform="translate(-63.71640803313699 91.26012098705047) rotate(432.6551111414998)"><path class="outline" fill="#A5ABB6" stroke="none" d="M 21.40063509461097,12.933012701892217 L 21.90063509461097,12.06698729810778 A 57.52437568929639 57.52437568929639 0 0 0 24.218136042933146,13.334955990941502 L 23.758423328463014,14.223023679890098 A 58.52437568929639 58.52437568929639 0 0 1 21.40063509461097,12.933012701892217 Z M 74.24498525304705,15.812315811711315 L 73.84203926625028,14.897092051243753 A 57.52437568929639 57.52437568929639 0 0 0 76.23470269409614,13.777397015741096 L 74.90108301817178,11.090119851028199 L 82.72728602441363,11.113497299369724 L 78.0128622619953,17.360433235358293 L 76.67924258607093,14.673156070645396 A 58.52437568929639 58.52437568929639 0 0 1 74.24498525304705,15.812315811711315"/><text text-anchor="middle" pointer-events="none" font-size="8px" fill="#000000" x="48.83714849911399" y="23.245063752473364" font-family="sans-serif">PRODUCED</text></g><g class="relationship" transform="translate(-63.71640803313699 91.26012098705047) rotate(432.6551111414998)"><path class="outline" fill="#A5ABB6" stroke="none" d="M 25 0.5 L 31.173912448510556 0.5 L 31.173912448510556 -0.5 L 25 -0.5 Z M 66.94734994851055 0.5 L 73.12126239702111 0.5 L 73.12126239702111 3.5 L 80.12126239702111 0 L 73.12126239702111 -3.5 L 73.12126239702111 -0.5 L 66.94734994851055 -0.5 Z"/><text text-anchor="middle" pointer-events="none" font-size="8px" fill="#000000" x="49.060631198510556" y="3" font-family="sans-serif">WROTE</text></g><g class="relationship" transform="translate(-63.71640803313699 91.26012098705047) rotate(432.6551111414998)"><path class="outline" fill="#A5ABB6" stroke="none" d="M 21.40063509461097,-12.933012701892217 L 21.90063509461097,-12.06698729810778 A 57.52437568929639 57.52437568929639 0 0 1 26.393868673689052,-14.403722834427718 L 25.971978753550626,-15.31036989656689 A 58.52437568929639 58.52437568929639 0 0 0 21.40063509461097,-12.933012701892217 Z M 71.96742209632035,-16.75828382490071 L 71.60339259739555,-15.82689640609339 A 57.52437568929639 57.52437568929639 0 0 1 76.23470269409614,-13.777397015741096 L 74.90108301817178,-11.090119851028199 L 82.72728602441363,-11.113497299369724 L 78.0128622619953,-17.360433235358293 L 76.67924258607093,-14.673156070645396 A 58.52437568929639 58.52437568929639 0 0 0 71.96742209632035,-16.75828382490071"/><text text-anchor="middle" pointer-events="none" font-size="8px" fill="#000000" x="48.837148499113965" y="-17.245063752473364" font-family="sans-serif">DIRECTED</text></g></g><g class="layer nodes"><g class="node" transform="translate(135.97460659824662,261.48542800216575)"><circle class="outline" cx="0" cy="0" r="25" fill="#57C7E3" stroke="#23b3d7" stroke-width="2px"/><text text-anchor="middle" pointer-events="none" font-family="sans-serif" dy="1.5625" font-size="25" fill="#2A2C34"/><text text-anchor="middle" pointer-events="none" font-family="sans-serif" dy="1.5625" font-size="25" fill="#2A2C34"/><text text-anchor="middle" pointer-events="none" x="0" y="0" font-size="10px" fill="#2A2C34" font-family="sans-serif"> Cameron</text><text text-anchor="middle" pointer-events="none" x="0" y="10" font-size="10px" fill="#2A2C34" font-family="sans-serif"> Crowe</text></g><g class="node" transform="translate(229.58795703672644,212.48490541310417)"><circle class="outline" cx="0" cy="0" r="25" fill="#F79767" stroke="#f36924" stroke-width="2px"/><text text-anchor="middle" pointer-events="none" font-family="sans-serif" dy="1.5625" font-size="25" fill="#FFFFFF"/><text text-anchor="middle" pointer-events="none" font-family="sans-serif" dy="1.5625" font-size="25" fill="#FFFFFF"/><text text-anchor="middle" pointer-events="none" x="0" y="0" font-size="10px" fill="#FFFFFF" font-family="sans-serif"> Jerry</text><text text-anchor="middle" pointer-events="none" x="0" y="10" font-size="10px" fill="#FFFFFF" font-family="sans-serif"> Maguire</text></g><g class="node" transform="translate(235.62531703785868,-0.6333831735461279)"><circle class="outline" cx="0" cy="0" r="25" fill="#57C7E3" stroke="#23b3d7" stroke-width="2px"/><text text-anchor="middle" pointer-events="none" font-family="sans-serif" dy="1.5625" font-size="25" fill="#2A2C34"/><text text-anchor="middle" pointer-events="none" font-family="sans-serif" dy="1.5625" font-size="25" fill="#2A2C34"/><text text-anchor="middle" pointer-events="none" x="0" y="0" font-size="10px" fill="#2A2C34" font-family="sans-serif"> Lilly</text><text text-anchor="middle" pointer-events="none" x="0" y="10" font-size="10px" fill="#2A2C34" font-family="sans-serif"> Wacho…</text></g><g class="node" transform="translate(134.23609113139224,26.100340973622604)"><circle class="outline" cx="0" cy="0" r="25" fill="#F79767" stroke="#f36924" stroke-width="2px"/><text text-anchor="middle" pointer-events="none" font-family="sans-serif" dy="1.5625" font-size="25" fill="#FFFFFF"/><text text-anchor="middle" pointer-events="none" font-family="sans-serif" dy="1.5625" font-size="25" fill="#FFFFFF"/><text text-anchor="middle" pointer-events="none" x="0" y="0" font-size="10px" fill="#FFFFFF" font-family="sans-serif"> Speed</text><text text-anchor="middle" pointer-events="none" x="0" y="10" font-size="10px" fill="#FFFFFF" font-family="sans-serif"> Racer</text></g><g class="node" transform="translate(60.52413493732358,-49.172324677574615)"><circle class="outline" cx="0" cy="0" r="25" fill="#57C7E3" stroke="#23b3d7" stroke-width="2px"/><text text-anchor="middle" pointer-events="none" font-family="sans-serif" dy="1.5625" font-size="25" fill="#2A2C34"/><text text-anchor="middle" pointer-events="none" font-family="sans-serif" dy="1.5625" font-size="25" fill="#2A2C34"/><text text-anchor="middle" pointer-events="none" x="0" y="0" font-size="10px" fill="#2A2C34" font-family="sans-serif"> Lana</text><text text-anchor="middle" pointer-events="none" x="0" y="10" font-size="10px" fill="#2A2C34" font-family="sans-serif"> Wacho…</text></g><g class="node" transform="translate(-63.71640803313699,91.26012098705047)"><circle class="outline" cx="0" cy="0" r="25" fill="#57C7E3" stroke="#23b3d7" stroke-width="2px"/><text text-anchor="middle" pointer-events="none" font-family="sans-serif" dy="1.5625" font-size="25" fill="#2A2C34"/><text text-anchor="middle" pointer-events="none" font-family="sans-serif" dy="1.5625" font-size="25" fill="#2A2C34"/><text text-anchor="middle" pointer-events="none" x="0" y="0" font-size="10px" fill="#2A2C34" font-family="sans-serif"> Nancy</text><text text-anchor="middle" pointer-events="none" x="0" y="10" font-size="10px" fill="#2A2C34" font-family="sans-serif"> Meyers</text></g><g class="node" transform="translate(-32.37736314926643,191.60125947825014)"><circle class="outline" cx="0" cy="0" r="25" fill="#F79767" stroke="#f36924" stroke-width="2px"/><text text-anchor="middle" pointer-events="none" font-family="sans-serif" dy="1.5625" font-size="25" fill="#FFFFFF"/><text text-anchor="middle" pointer-events="none" x="0" y="5" font-size="10px" fill="#FFFFFF" font-family="sans-serif"> Somethi…</text></g></g></svg>