<svg xmlns="http://www.w3.org/2000/svg" width="548.69921875" height="570.2835693359375" viewBox="-223.1880340576172 -161.17190551757812 548.69921875 570.2835693359375"><title>Neo4j Graph Visualization</title><desc>Created using Neo4j (http://www.neo4j.com/)</desc><g class="layer relationships"><g class="relationship" transform="translate(247.69584448199453 91.50043716600238) rotate(238.52335907907752)"><path class="outline" fill="#A5ABB6" stroke="none" d="M 25 0.5 L 37.72281342520883 0.5 L 37.72281342520883 -0.5 L 25 -0.5 Z M 83.28531342520883 0.5 L 96.00812685041765 0.5 L 96.00812685041765 3.5 L 103.00812685041765 0 L 96.00812685041765 -3.5 L 96.00812685041765 -0.5 L 83.28531342520883 -0.5 Z"/><text text-anchor="middle" pointer-events="none" font-size="8px" fill="#000000" x="60.50406342520883" y="3" transform="rotate(180 60.50406342520883 0)" font-family="sans-serif">ACTED_IN</text></g><g class="relationship" transform="translate(294.19164548786244 35.82483014146344) rotate(205.26823338682055)"><path class="outline" fill="#A5ABB6" stroke="none" d="M 25 0.5 L 35.71803768795929 0.5 L 35.71803768795929 -0.5 L 25 -0.5 Z M 82.60866268795928 0.5 L 93.32670037591858 0.5 L 93.32670037591858 3.5 L 100.32670037591858 0 L 93.32670037591858 -3.5 L 93.32670037591858 -0.5 L 82.60866268795928 -0.5 Z"/><text text-anchor="middle" pointer-events="none" font-size="8px" fill="#000000" x="59.16335018795929" y="3" transform="rotate(180 59.16335018795929 0)" font-family="sans-serif">DIRECTED</text></g><g class="relationship" transform="translate(296.51116587832337 -50.13021950924442) rotate(524.3232315393602)"><path class="outline" fill="#A5ABB6" stroke="none" d="M 25 0.5 L 33.11633800958351 0.5 L 33.11633800958351 -0.5 L 25 -0.5 Z M 80.0069630095835 0.5 L 88.12330101916702 0.5 L 88.12330101916702 3.5 L 95.12330101916702 0 L 88.12330101916702 -3.5 L 88.12330101916702 -0.5 L 80.0069630095835 -0.5 Z"/><text text-anchor="middle" pointer-events="none" font-size="8px" fill="#000000" x="56.56165050958351" y="3" transform="rotate(180 56.56165050958351 0)" font-family="sans-serif">DIRECTED</text></g><g class="relationship" transform="translate(238.2521242822736 -121.37160768719647) rotate(478.963654997219)"><path class="outline" fill="#A5ABB6" stroke="none" d="M 25 0.5 L 32.98078427195399 0.5 L 32.98078427195399 -0.5 L 25 -0.5 Z M 78.543284271954 0.5 L 86.52406854390799 0.5 L 86.52406854390799 3.5 L 93.52406854390799 0 L 86.52406854390799 -3.5 L 86.52406854390799 -0.5 L 78.543284271954 -0.5 Z"/><text text-anchor="middle" pointer-events="none" font-size="8px" fill="#000000" x="55.76203427195399" y="3" transform="rotate(180 55.76203427195399 0)" font-family="sans-serif">ACTED_IN</text></g><g class="relationship" transform="translate(179.7712830480489 110.44242889927709) rotate(270.48522793481584)"><path class="outline" fill="#A5ABB6" stroke="none" d="M 25 0.5 L 37.77810775264905 0.5 L 37.77810775264905 -0.5 L 25 -0.5 Z M 83.34060775264905 0.5 L 96.1187155052981 0.5 L 96.1187155052981 3.5 L 103.1187155052981 0 L 96.1187155052981 -3.5 L 96.1187155052981 -0.5 L 83.34060775264905 -0.5 Z"/><text text-anchor="middle" pointer-events="none" font-size="8px" fill="#000000" x="60.55935775264905" y="3" font-family="sans-serif">ACTED_IN</text></g><g class="relationship" transform="translate(142.23735005488493 -127.72831569458972) rotate(430.6639974491075)"><path class="outline" fill="#A5ABB6" stroke="none" d="M 25 0.5 L 32.03659141583825 0.5 L 32.03659141583825 -0.5 L 25 -0.5 Z M 77.59909141583825 0.5 L 84.6356828316765 0.5 L 84.6356828316765 3.5 L 91.6356828316765 0 L 84.6356828316765 -3.5 L 84.6356828316765 -0.5 L 77.59909141583825 -0.5 Z"/><text text-anchor="middle" pointer-events="none" font-size="8px" fill="#000000" x="54.81784141583825" y="3" font-family="sans-serif">ACTED_IN</text></g><g class="relationship" transform="translate(47.543730937042085 -132.17190721557637) rotate(400.6588022657414)"><path class="outline" fill="#A5ABB6" stroke="none" d="M 25 0.5 L 60.92182629585653 0.5 L 60.92182629585653 -0.5 L 25 -0.5 Z M 107.81245129585653 0.5 L 143.73427759171307 0.5 L 143.73427759171307 3.5 L 150.73427759171307 0 L 143.73427759171307 -3.5 L 143.73427759171307 -0.5 L 107.81245129585653 -0.5 Z"/><text text-anchor="middle" pointer-events="none" font-size="8px" fill="#000000" x="84.36713879585653" y="3" font-family="sans-serif">DIRECTED</text></g><g class="relationship" transform="translate(59.0528842535535 -36.9807926551015) rotate(369.0079554790129)"><path class="outline" fill="#A5ABB6" stroke="none" d="M 25 0.5 L 40.27548565759497 0.5 L 40.27548565759497 -0.5 L 25 -0.5 Z M 76.04892315759497 0.5 L 91.32440881518994 0.5 L 91.32440881518994 3.5 L 98.32440881518994 0 L 91.32440881518994 -3.5 L 91.32440881518994 -0.5 L 76.04892315759497 -0.5 Z"/><text text-anchor="middle" pointer-events="none" font-size="8px" fill="#000000" x="58.16220440759497" y="3" font-family="sans-serif">WROTE</text></g><g class="relationship" transform="translate(63.55296197245997 36.91994575654476) rotate(335.04326482030524)"><path class="outline" fill="#A5ABB6" stroke="none" d="M 25 0.5 L 35.301562604202985 0.5 L 35.301562604202985 -0.5 L 25 -0.5 Z M 87.08281260420299 0.5 L 97.38437520840597 0.5 L 97.38437520840597 3.5 L 104.38437520840597 0 L 97.38437520840597 -3.5 L 97.38437520840597 -0.5 L 87.08281260420299 -0.5 Z"/><text text-anchor="middle" pointer-events="none" font-size="8px" fill="#000000" x="61.192187604202985" y="3" font-family="sans-serif">PRODUCED</text></g><g class="relationship" transform="translate(112.35075375926073 91.39249695503474) rotate(302.13380156920226)"><path class="outline" fill="#A5ABB6" stroke="none" d="M 25 0.5 L 36.56127746946501 0.5 L 36.56127746946501 -0.5 L 25 -0.5 Z M 85.23315246946501 0.5 L 96.79442993893002 0.5 L 96.79442993893002 3.5 L 103.79442993893002 0 L 96.79442993893002 -3.5 L 96.79442993893002 -0.5 L 85.23315246946501 -0.5 Z"/><text text-anchor="middle" pointer-events="none" font-size="8px" fill="#000000" x="60.89721496946501" y="3" font-family="sans-serif">REVIEWED</text></g></g><g class="layer nodes"><g class="node" transform="translate(20.26977207072923,380.11170562986393)"><circle class="outline" cx="0" cy="0" r="25" fill="#F79767" stroke="#f36924" stroke-width="2px"/><text text-anchor="middle" pointer-events="none" font-family="sans-serif" dy="1.5625" font-size="25" fill="#FFFFFF"/><text text-anchor="middle" pointer-events="none" font-family="sans-serif" dy="1.5625" font-size="25" fill="#FFFFFF"/><text text-anchor="middle" pointer-events="none" x="0" y="0" font-size="10px" fill="#FFFFFF" font-family="sans-serif"> V for</text><text text-anchor="middle" pointer-events="none" x="0" y="10" font-size="10px" fill="#FFFFFF" font-family="sans-serif"> Vendetta</text></g><g class="node" transform="translate(214.21333243711462,376.7499963523776)"><circle class="outline" cx="0" cy="0" r="25" fill="#F79767" stroke="#f36924" stroke-width="2px"/><text text-anchor="middle" pointer-events="none" font-family="sans-serif" dy="1.5625" font-size="25" fill="#FFFFFF"/><text text-anchor="middle" pointer-events="none" font-family="sans-serif" dy="1.5625" font-size="25" fill="#FFFFFF"/><text text-anchor="middle" pointer-events="none" font-family="sans-serif" dy="1.5625" font-size="25" fill="#FFFFFF"/><text text-anchor="middle" pointer-events="none" x="0" y="-5" font-size="10px" fill="#FFFFFF" font-family="sans-serif"> The</text><text text-anchor="middle" pointer-events="none" x="0" y="5" font-size="10px" fill="#FFFFFF" font-family="sans-serif"> Matrix</text><text text-anchor="middle" pointer-events="none" x="0" y="15" font-size="10px" fill="#FFFFFF" font-family="sans-serif"> Revol…</text></g><g class="node selected" transform="translate(180.8562850701225,-17.671692232390544)"><circle class="outline" cx="0" cy="0" r="25" fill="#F79767" stroke="#f36924" stroke-width="2px"/><text text-anchor="middle" pointer-events="none" font-family="sans-serif" dy="1.5625" font-size="25" fill="#FFFFFF"/><text text-anchor="middle" pointer-events="none" font-family="sans-serif" dy="1.5625" font-size="25" fill="#FFFFFF"/><text text-anchor="middle" pointer-events="none" x="0" y="0" font-size="10px" fill="#FFFFFF" font-family="sans-serif"> Cloud</text><text text-anchor="middle" pointer-events="none" x="0" y="10" font-size="10px" fill="#FFFFFF" font-family="sans-serif"> Atlas</text></g><g class="node" transform="translate(-194.18804046685784,114.24227370248248)"><circle class="outline" cx="0" cy="0" r="25" fill="#F79767" stroke="#f36924" stroke-width="2px"/><text text-anchor="middle" pointer-events="none" font-family="sans-serif" dy="1.5625" font-size="25" fill="#FFFFFF"/><text text-anchor="middle" pointer-events="none" font-family="sans-serif" dy="1.5625" font-size="25" fill="#FFFFFF"/><text text-anchor="middle" pointer-events="none" font-family="sans-serif" dy="1.5625" font-size="25" fill="#FFFFFF"/><text text-anchor="middle" pointer-events="none" x="0" y="-5" font-size="10px" fill="#FFFFFF" font-family="sans-serif"> The</text><text text-anchor="middle" pointer-events="none" x="0" y="5" font-size="10px" fill="#FFFFFF" font-family="sans-serif"> Matrix</text><text text-anchor="middle" pointer-events="none" x="0" y="15" font-size="10px" fill="#FFFFFF" font-family="sans-serif"> Reloa…</text></g><g class="node" transform="translate(-114.52839762328641,277.1049830970034)"><circle class="outline" cx="0" cy="0" r="25" fill="#F79767" stroke="#f36924" stroke-width="2px"/><text text-anchor="middle" pointer-events="none" font-family="sans-serif" dy="1.5625" font-size="25" fill="#FFFFFF"/><text text-anchor="middle" pointer-events="none" font-family="sans-serif" dy="1.5625" font-size="25" fill="#FFFFFF"/><text text-anchor="middle" pointer-events="none" x="0" y="0" font-size="10px" fill="#FFFFFF" font-family="sans-serif"> The</text><text text-anchor="middle" pointer-events="none" x="0" y="10" font-size="10px" fill="#FFFFFF" font-family="sans-serif"> Matrix</text></g><g class="node" transform="translate(247.69584448199453,91.50043716600238)"><circle class="outline" cx="0" cy="0" r="25" fill="#57C7E3" stroke="#23b3d7" stroke-width="2px"/><text text-anchor="middle" pointer-events="none" font-family="sans-serif" dy="1.5625" font-size="25" fill="#2A2C34"/><text text-anchor="middle" pointer-events="none" font-family="sans-serif" dy="1.5625" font-size="25" fill="#2A2C34"/><text text-anchor="middle" pointer-events="none" x="0" y="0" font-size="10px" fill="#2A2C34" font-family="sans-serif"> Hugo</text><text text-anchor="middle" pointer-events="none" x="0" y="10" font-size="10px" fill="#2A2C34" font-family="sans-serif"> Weaving</text></g><g class="node" transform="translate(294.19164548786244,35.82483014146344)"><circle class="outline" cx="0" cy="0" r="25" fill="#57C7E3" stroke="#23b3d7" stroke-width="2px"/><text text-anchor="middle" pointer-events="none" font-family="sans-serif" dy="1.5625" font-size="25" fill="#2A2C34"/><text text-anchor="middle" pointer-events="none" font-family="sans-serif" dy="1.5625" font-size="25" fill="#2A2C34"/><text text-anchor="middle" pointer-events="none" x="0" y="0" font-size="10px" fill="#2A2C34" font-family="sans-serif"> Lilly</text><text text-anchor="middle" pointer-events="none" x="0" y="10" font-size="10px" fill="#2A2C34" font-family="sans-serif"> Wacho…</text></g><g class="node" transform="translate(296.51116587832337,-50.13021950924442)"><circle class="outline" cx="0" cy="0" r="25" fill="#57C7E3" stroke="#23b3d7" stroke-width="2px"/><text text-anchor="middle" pointer-events="none" font-family="sans-serif" dy="1.5625" font-size="25" fill="#2A2C34"/><text text-anchor="middle" pointer-events="none" font-family="sans-serif" dy="1.5625" font-size="25" fill="#2A2C34"/><text text-anchor="middle" pointer-events="none" x="0" y="0" font-size="10px" fill="#2A2C34" font-family="sans-serif"> Lana</text><text text-anchor="middle" pointer-events="none" x="0" y="10" font-size="10px" fill="#2A2C34" font-family="sans-serif"> Wacho…</text></g><g class="node" transform="translate(238.2521242822736,-121.37160768719647)"><circle class="outline" cx="0" cy="0" r="25" fill="#57C7E3" stroke="#23b3d7" stroke-width="2px"/><text text-anchor="middle" pointer-events="none" font-family="sans-serif" dy="1.5625" font-size="25" fill="#2A2C34"/><text text-anchor="middle" pointer-events="none" font-family="sans-serif" dy="1.5625" font-size="25" fill="#2A2C34"/><text text-anchor="middle" pointer-events="none" x="0" y="0" font-size="10px" fill="#2A2C34" font-family="sans-serif"> Tom</text><text text-anchor="middle" pointer-events="none" x="0" y="10" font-size="10px" fill="#2A2C34" font-family="sans-serif"> Hanks</text></g><g class="node" transform="translate(179.7712830480489,110.44242889927709)"><circle class="outline" cx="0" cy="0" r="25" fill="#57C7E3" stroke="#23b3d7" stroke-width="2px"/><text text-anchor="middle" pointer-events="none" font-family="sans-serif" dy="1.5625" font-size="25" fill="#2A2C34"/><text text-anchor="middle" pointer-events="none" font-family="sans-serif" dy="1.5625" font-size="25" fill="#2A2C34"/><text text-anchor="middle" pointer-events="none" x="0" y="0" font-size="10px" fill="#2A2C34" font-family="sans-serif"> Halle</text><text text-anchor="middle" pointer-events="none" x="0" y="10" font-size="10px" fill="#2A2C34" font-family="sans-serif"> Berry</text></g><g class="node" transform="translate(142.23735005488493,-127.72831569458972)"><circle class="outline" cx="0" cy="0" r="25" fill="#57C7E3" stroke="#23b3d7" stroke-width="2px"/><text text-anchor="middle" pointer-events="none" font-family="sans-serif" dy="1.5625" font-size="25" fill="#2A2C34"/><text text-anchor="middle" pointer-events="none" font-family="sans-serif" dy="1.5625" font-size="25" fill="#2A2C34"/><text text-anchor="middle" pointer-events="none" x="0" y="0" font-size="10px" fill="#2A2C34" font-family="sans-serif"> Jim</text><text text-anchor="middle" pointer-events="none" x="0" y="10" font-size="10px" fill="#2A2C34" font-family="sans-serif"> Broadb…</text></g><g class="node" transform="translate(47.543730937042085,-132.17190721557637)"><circle class="outline" cx="0" cy="0" r="25" fill="#57C7E3" stroke="#23b3d7" stroke-width="2px"/><text text-anchor="middle" pointer-events="none" font-family="sans-serif" dy="1.5625" font-size="25" fill="#2A2C34"/><text text-anchor="middle" pointer-events="none" font-family="sans-serif" dy="1.5625" font-size="25" fill="#2A2C34"/><text text-anchor="middle" pointer-events="none" x="0" y="0" font-size="10px" fill="#2A2C34" font-family="sans-serif"> Tom</text><text text-anchor="middle" pointer-events="none" x="0" y="10" font-size="10px" fill="#2A2C34" font-family="sans-serif"> Tykwer</text></g><g class="node" transform="translate(59.0528842535535,-36.9807926551015)"><circle class="outline" cx="0" cy="0" r="25" fill="#57C7E3" stroke="#23b3d7" stroke-width="2px"/><text text-anchor="middle" pointer-events="none" font-family="sans-serif" dy="1.5625" font-size="25" fill="#2A2C34"/><text text-anchor="middle" pointer-events="none" font-family="sans-serif" dy="1.5625" font-size="25" fill="#2A2C34"/><text text-anchor="middle" pointer-events="none" x="0" y="0" font-size="10px" fill="#2A2C34" font-family="sans-serif"> David</text><text text-anchor="middle" pointer-events="none" x="0" y="10" font-size="10px" fill="#2A2C34" font-family="sans-serif"> Mitchell</text></g><g class="node" transform="translate(63.55296197245997,36.91994575654476)"><circle class="outline" cx="0" cy="0" r="25" fill="#57C7E3" stroke="#23b3d7" stroke-width="2px"/><text text-anchor="middle" pointer-events="none" font-family="sans-serif" dy="1.5625" font-size="25" fill="#2A2C34"/><text text-anchor="middle" pointer-events="none" font-family="sans-serif" dy="1.5625" font-size="25" fill="#2A2C34"/><text text-anchor="middle" pointer-events="none" x="0" y="0" font-size="10px" fill="#2A2C34" font-family="sans-serif"> Stefan</text><text text-anchor="middle" pointer-events="none" x="0" y="10" font-size="10px" fill="#2A2C34" font-family="sans-serif"> Arndt</text></g><g class="node" transform="translate(112.35075375926073,91.39249695503474)"><circle class="outline" cx="0" cy="0" r="25" fill="#57C7E3" stroke="#23b3d7" stroke-width="2px"/><text text-anchor="middle" pointer-events="none" font-family="sans-serif" dy="1.5625" font-size="25" fill="#2A2C34"/><text text-anchor="middle" pointer-events="none" font-family="sans-serif" dy="1.5625" font-size="25" fill="#2A2C34"/><text text-anchor="middle" pointer-events="none" x="0" y="0" font-size="10px" fill="#2A2C34" font-family="sans-serif"> Jessica</text><text text-anchor="middle" pointer-events="none" x="0" y="10" font-size="10px" fill="#2A2C34" font-family="sans-serif"> Thomp…</text></g></g></svg>